# xmcd
#
# Track frame offsets:
#  150
#  9560
#  19395
#  30532
#  48260
#  56492
#  65057
#  74405
#  84202
#  92775
#  101787
#  122247
#
# Disc length: 1816 seconds
#
# Revision: 0
# Processed by: cddbd v1.5.1PL2 Copyright (c) Steve Scherf et al.
# Submitted via: Collectorz.com_Music_Collector 6.9
#
DISCID=a007160c
DTITLE=New Deal String Band - Bluegrass
DYEAR=1950
DGENRE=Bluegrass
TTITLE0=Prisoner's Song
TTITLE1=Dusty Miller
TTITLE2=Waiting For A Train
TTITLE3=Dark Holler
TTITLE4=Shenandoah Breakdown
TTITLE5=Don't Pass Me By
TTITLE6=Love Come Home
TTITLE7=Crazy Creek
TTITLE8=One More Night
TTITLE9=White House Blues
TTITLE10=Memories of Mother and Dad
TTITLE11=No Expectations
EXTD=
EXTT0=
EXTT1=
EXTT2=
EXTT3=
EXTT4=
EXTT5=
EXTT6=
EXTT7=
EXTT8=
EXTT9=
EXTT10=
EXTT11=
PLAYORDER=
